<svg xmlns="http://www.w3.org/2000/svg" width="64" height="64" viewBox="0 0 64 64"><path d="M 13.98,44.62 A 22.00,22.00 0 0 1 21.00,51.05 L 25.00,44.12 A 14.00,14.00 0 0 0 20.53,40.03 Z" fill="#225996" fill-opacity="0.3" stroke="none"/><path d="M 10.33,35.82 A 22.00,22.00 0 0 1 13.98,44.62 L 20.53,40.03 A 14.00,14.00 0 0 0 18.21,34.43 Z" fill="#2970ac" fill-opacity="0.3" stroke="none"/><path d="M 10.75,26.31 A 22.00,22.00 0 0 1 10.33,35.82 L 18.21,34.43 A 14.00,14.00 0 0 0 18.48,28.38 Z" fill="#2186bb" fill-opacity="0.3" stroke="none"/><path d="M 15.15,17.86 A 22.00,22.00 0 0 1 10.75,26.31 L 18.48,28.38 A 14.00,14.00 0 0 0 21.28,23.00 Z" fill="#0b9bc5" fill-opacity="0.3" stroke="none"/><path d="M 22.70,12.06 A 22.00,22.00 0 0 1 15.15,17.86 L 21.28,23.00 A 14.00,14.00 0 0 0 26.08,19.31 Z" fill="#0da8b5" fill-opacity="0.3" stroke="none"/><path d="M 32.00,10.00 A 22.00,22.00 0 0 1 22.70,12.06 L 26.08,19.31 A 14.00,14.00 0 0 0 32.00,18.00 Z" fill="#26aa8a" fill-opacity="0.3" stroke="none"/><path d="M 41.30,12.06 A 22.00,22.00 0 0 1 32.00,10.00 L 32.00,18.00 A 14.00,14.00 0 0 0 37.92,19.31 Z" fill="#40ae5f" fill-opacity="0.3" stroke="none"/><path d="M 48.85,17.86 A 22.00,22.00 0 0 1 41.30,12.06 L 37.92,19.31 A 14.00,14.00 0 0 0 42.72,23.00 Z" fill="#a6d73e" fill-opacity="0.3" stroke="none"/><path d="M 53.25,26.31 A 22.00,22.00 0 0 1 48.85,17.86 L 42.72,23.00 A 14.00,14.00 0 0 0 45.52,28.38 Z" fill="#fed64a" fill-opacity="0.3" stroke="none"/><path d="M 53.67,35.82 A 22.00,22.00 0 0 1 53.25,26.31 L 45.52,28.38 A 14.00,14.00 0 0 0 45.79,34.43 Z" fill="#ea643e" fill-opacity="0.3" stroke="none"/><path d="M 50.02,44.62 A 22.00,22.00 0 0 1 53.67,35.82 L 45.79,34.43 A 14.00,14.00 0 0 0 43.47,40.03 Z" fill="#d7191c" fill-opacity="0.3" stroke="none"/><path d="M 43.00,51.05 A 22.00,22.00 0 0 1 50.02,44.62 L 43.47,40.03 A 14.00,14.00 0 0 0 39.00,44.12 Z" fill="#d7191c" fill-opacity="0.3" stroke="none"/><defs><clipPath id="precip_clip"><circle cx="32.0" cy="32.0" r="9.0"/></clipPath></defs><rect x="23.00" y="35.60" width="18.00" height="5.40" fill="#3e97e6" clip-path="url(#precip_clip)"/><path d="M 23.00,35.60 23.56,35.14 24.12,34.75 24.69,34.49 25.25,34.40 25.81,34.49 26.38,34.75 26.94,35.14 27.50,35.60 28.06,36.06 28.62,36.45 29.19,36.71 29.75,36.80 30.31,36.71 30.88,36.45 31.44,36.06 32.00,35.60 32.56,35.14 33.12,34.75 33.69,34.49 34.25,34.40 34.81,34.49 35.38,34.75 35.94,35.14 36.50,35.60 37.06,36.06 37.62,36.45 38.19,36.71 38.75,36.80 39.31,36.71 39.88,36.45 40.44,36.06 41.00,35.60" stroke="#3279b8" stroke-width="1.8" fill="none" clip-path="url(#precip_clip)"/><path d="M 23.00,37.10 23.56,36.69 24.12,36.34 24.69,36.10 25.25,36.02 25.81,36.10 26.38,36.34 26.94,36.69 27.50,37.10 28.06,37.51 28.62,37.86 29.19,38.10 29.75,38.18 30.31,38.10 30.88,37.86 31.44,37.51 32.00,37.10 32.56,36.69 33.12,36.34 33.69,36.10 34.25,36.02 34.81,36.10 35.38,36.34 35.94,36.69 36.50,37.10 37.06,37.51 37.62,37.86 38.19,38.10 38.75,38.18 39.31,38.10 39.88,37.86 40.44,37.51 41.00,37.10" stroke="#3279b8" stroke-width="1.6" fill="none" clip-path="url(#precip_clip)"/><path d="M 23.00,38.60 23.56,38.23 24.12,37.92 24.69,37.71 25.25,37.64 25.81,37.71 26.38,37.92 26.94,38.23 27.50,38.60 28.06,38.97 28.62,39.28 29.19,39.49 29.75,39.56 30.31,39.49 30.88,39.28 31.44,38.97 32.00,38.60 32.56,38.23 33.12,37.92 33.69,37.71 34.25,37.64 34.81,37.71 35.38,37.92 35.94,38.23 36.50,38.60 37.06,38.97 37.62,39.28 38.19,39.49 38.75,39.56 39.31,39.49 39.88,39.28 40.44,38.97 41.00,38.60" stroke="#3279b8" stroke-width="1.4" fill="none" clip-path="url(#precip_clip)"/><circle cx="32.0" cy="32.0" r="9.0" fill="none" stroke="#666" stroke-width="1"/><path d="M 44.62,13.98 A 22.00,22.00 0 0 1 35.82,10.33 L 34.43,18.21 A 14.00,14.00 0 0 0 40.03,20.53 Z" fill="#4aaf4e" fill-opacity="0.95" stroke="none"/><text x="38.89" y="15.37" font-size="5" fill="#777" text-anchor="middle" dominant-baseline="central" style="pointer-events:none">14</text><path d="M 46.14,15.15 A 22.00,22.00 0 0 1 44.62,13.98 L 40.03,20.53 A 14.00,14.00 0 0 0 41.00,21.28 Z" fill="#a6d73e" fill-opacity="0.95" stroke="none"/><text x="42.96" y="17.72" font-size="5" fill="#777" text-anchor="middle" dominant-baseline="central" style="pointer-events:none">18</text><circle cx="39.61" cy="15.69" r="2.6" fill="none" stroke="#000" stroke-width="1"/><path d="M 32.0,32.0 L 11.80,23.29 A 22.00,22.00 0 0 1 11.80,40.71 Z" fill="rgba(120,120,120,0.25)" stroke="none"/><g transform="rotate(270.0,32.0,32.0)"><line x1="54.00" y1="32.00" x2="64.00" y2="32.00" stroke="#222" stroke-width="2"/><polygon points="64.00,32.00 58.00,29.00 58.00,35.00" fill="#222"/></g></svg>