<svg xmlns="http://www.w3.org/2000/svg" width="64" height="64" viewBox="0 0 64 64"><path d="M 13.98,44.62 A 22.00,22.00 0 0 1 21.00,51.05 L 25.00,44.12 A 14.00,14.00 0 0 0 20.53,40.03 Z" fill="#225996" fill-opacity="0.3" stroke="none"/><path d="M 10.33,35.82 A 22.00,22.00 0 0 1 13.98,44.62 L 20.53,40.03 A 14.00,14.00 0 0 0 18.21,34.43 Z" fill="#2970ac" fill-opacity="0.3" stroke="none"/><path d="M 10.75,26.31 A 22.00,22.00 0 0 1 10.33,35.82 L 18.21,34.43 A 14.00,14.00 0 0 0 18.48,28.38 Z" fill="#2186bb" fill-opacity="0.3" stroke="none"/><path d="M 15.15,17.86 A 22.00,22.00 0 0 1 10.75,26.31 L 18.48,28.38 A 14.00,14.00 0 0 0 21.28,23.00 Z" fill="#0b9bc5" fill-opacity="0.3" stroke="none"/><path d="M 22.70,12.06 A 22.00,22.00 0 0 1 15.15,17.86 L 21.28,23.00 A 14.00,14.00 0 0 0 26.08,19.31 Z" fill="#0da8b5" fill-opacity="0.3" stroke="none"/><path d="M 32.00,10.00 A 22.00,22.00 0 0 1 22.70,12.06 L 26.08,19.31 A 14.00,14.00 0 0 0 32.00,18.00 Z" fill="#26aa8a" fill-opacity="0.3" stroke="none"/><path d="M 41.30,12.06 A 22.00,22.00 0 0 1 32.00,10.00 L 32.00,18.00 A 14.00,14.00 0 0 0 37.92,19.31 Z" fill="#40ae5f" fill-opacity="0.3" stroke="none"/><path d="M 48.85,17.86 A 22.00,22.00 0 0 1 41.30,12.06 L 37.92,19.31 A 14.00,14.00 0 0 0 42.72,23.00 Z" fill="#a6d73e" fill-opacity="0.3" stroke="none"/><path d="M 53.25,26.31 A 22.00,22.00 0 0 1 48.85,17.86 L 42.72,23.00 A 14.00,14.00 0 0 0 45.52,28.38 Z" fill="#fed64a" fill-opacity="0.3" stroke="none"/><path d="M 53.67,35.82 A 22.00,22.00 0 0 1 53.25,26.31 L 45.52,28.38 A 14.00,14.00 0 0 0 45.79,34.43 Z" fill="#ea643e" fill-opacity="0.3" stroke="none"/><path d="M 50.02,44.62 A 22.00,22.00 0 0 1 53.67,35.82 L 45.79,34.43 A 14.00,14.00 0 0 0 43.47,40.03 Z" fill="#d7191c" fill-opacity="0.3" stroke="none"/><path d="M 43.00,51.05 A 22.00,22.00 0 0 1 50.02,44.62 L 43.47,40.03 A 14.00,14.00 0 0 0 39.00,44.12 Z" fill="#d7191c" fill-opacity="0.3" stroke="none"/><defs><clipPath id="precip_clip"><circle cx="32.0" cy="32.0" r="9.0"/></clipPath></defs><rect x="23.00" y="39.20" width="18.00" height="1.80" fill="#6bb7ff" clip-path="url(#precip_clip)"/><path d="M 23.00,39.20 23.56,38.89 24.12,38.63 24.69,38.46 25.25,38.40 25.81,38.46 26.38,38.63 26.94,38.89 27.50,39.20 28.06,39.51 28.62,39.77 29.19,39.94 29.75,40.00 30.31,39.94 30.88,39.77 31.44,39.51 32.00,39.20 32.56,38.89 33.12,38.63 33.69,38.46 34.25,38.40 34.81,38.46 35.38,38.63 35.94,38.89 36.50,39.20 37.06,39.51 37.62,39.77 38.19,39.94 38.75,40.00 39.31,39.94 39.88,39.77 40.44,39.51 41.00,39.20" stroke="#5692cc" stroke-width="1.8" fill="none" clip-path="url(#precip_clip)"/><path d="M 23.00,40.70 23.56,40.42 24.12,40.19 24.69,40.03 25.25,39.98 25.81,40.03 26.38,40.19 26.94,40.42 27.50,40.70 28.06,40.98 28.62,41.21 29.19,41.37 29.75,41.42 30.31,41.37 30.88,41.21 31.44,40.98 32.00,40.70 32.56,40.42 33.12,40.19 33.69,40.03 34.25,39.98 34.81,40.03 35.38,40.19 35.94,40.42 36.50,40.70 37.06,40.98 37.62,41.21 38.19,41.37 38.75,41.42 39.31,41.37 39.88,41.21 40.44,40.98 41.00,40.70" stroke="#5692cc" stroke-width="1.6" fill="none" clip-path="url(#precip_clip)"/><path d="M 23.00,41.00 23.56,40.76 24.12,40.55 24.69,40.41 25.25,40.36 25.81,40.41 26.38,40.55 26.94,40.76 27.50,41.00 28.06,41.24 28.62,41.45 29.19,41.59 29.75,41.64 30.31,41.59 30.88,41.45 31.44,41.24 32.00,41.00 32.56,40.76 33.12,40.55 33.69,40.41 34.25,40.36 34.81,40.41 35.38,40.55 35.94,40.76 36.50,41.00 37.06,41.24 37.62,41.45 38.19,41.59 38.75,41.64 39.31,41.59 39.88,41.45 40.44,41.24 41.00,41.00" stroke="#5692cc" stroke-width="1.4" fill="none" clip-path="url(#precip_clip)"/><circle cx="32.0" cy="32.0" r="9.0" fill="none" stroke="#666" stroke-width="1"/><path d="M 26.31,10.75 A 22.00,22.00 0 0 1 17.86,15.15 L 23.00,21.28 A 14.00,14.00 0 0 0 28.38,18.48 Z" fill="#17a9a4" fill-opacity="0.95" stroke="none"/><text x="23.69" y="16.03" font-size="5" fill="#777" text-anchor="middle" dominant-baseline="central" style="pointer-events:none">4</text><path d="M 28.18,10.33 A 22.00,22.00 0 0 1 26.31,10.75 L 28.38,18.48 A 14.00,14.00 0 0 0 29.57,18.21 Z" fill="#26aa8a" fill-opacity="0.95" stroke="none"/><text x="28.10" y="14.43" font-size="5" fill="#777" text-anchor="middle" dominant-baseline="central" style="pointer-events:none">8</text><circle cx="24.39" cy="15.69" r="2.6" fill="none" stroke="#000" stroke-width="1"/><path d="M 32.0,32.0 L 38.51,10.99 A 22.00,22.00 0 0 1 25.49,10.99 Z" fill="rgba(120,120,120,0.25)" stroke="none"/><g transform="rotate(180.0,32.0,32.0)"><line x1="54.00" y1="32.00" x2="64.00" y2="32.00" stroke="#222" stroke-width="2"/><polygon points="64.00,32.00 58.00,29.00 58.00,35.00" fill="#222"/></g></svg>