<svg xmlns="http://www.w3.org/2000/svg" width="64" height="64" viewBox="0 0 64 64"><path d="M 13.98,44.62 A 22.00,22.00 0 0 1 21.00,51.05 L 25.00,44.12 A 14.00,14.00 0 0 0 20.53,40.03 Z" fill="#225996" fill-opacity="0.3" stroke="none"/><path d="M 10.33,35.82 A 22.00,22.00 0 0 1 13.98,44.62 L 20.53,40.03 A 14.00,14.00 0 0 0 18.21,34.43 Z" fill="#2970ac" fill-opacity="0.3" stroke="none"/><path d="M 10.75,26.31 A 22.00,22.00 0 0 1 10.33,35.82 L 18.21,34.43 A 14.00,14.00 0 0 0 18.48,28.38 Z" fill="#2186bb" fill-opacity="0.3" stroke="none"/><path d="M 15.15,17.86 A 22.00,22.00 0 0 1 10.75,26.31 L 18.48,28.38 A 14.00,14.00 0 0 0 21.28,23.00 Z" fill="#0b9bc5" fill-opacity="0.3" stroke="none"/><path d="M 22.70,12.06 A 22.00,22.00 0 0 1 15.15,17.86 L 21.28,23.00 A 14.00,14.00 0 0 0 26.08,19.31 Z" fill="#0da8b5" fill-opacity="0.3" stroke="none"/><path d="M 32.00,10.00 A 22.00,22.00 0 0 1 22.70,12.06 L 26.08,19.31 A 14.00,14.00 0 0 0 32.00,18.00 Z" fill="#26aa8a" fill-opacity="0.3" stroke="none"/><path d="M 41.30,12.06 A 22.00,22.00 0 0 1 32.00,10.00 L 32.00,18.00 A 14.00,14.00 0 0 0 37.92,19.31 Z" fill="#40ae5f" fill-opacity="0.3" stroke="none"/><path d="M 48.85,17.86 A 22.00,22.00 0 0 1 41.30,12.06 L 37.92,19.31 A 14.00,14.00 0 0 0 42.72,23.00 Z" fill="#a6d73e" fill-opacity="0.3" stroke="none"/><path d="M 53.25,26.31 A 22.00,22.00 0 0 1 48.85,17.86 L 42.72,23.00 A 14.00,14.00 0 0 0 45.52,28.38 Z" fill="#fed64a" fill-opacity="0.3" stroke="none"/><path d="M 53.67,35.82 A 22.00,22.00 0 0 1 53.25,26.31 L 45.52,28.38 A 14.00,14.00 0 0 0 45.79,34.43 Z" fill="#ea643e" fill-opacity="0.3" stroke="none"/><path d="M 50.02,44.62 A 22.00,22.00 0 0 1 53.67,35.82 L 45.79,34.43 A 14.00,14.00 0 0 0 43.47,40.03 Z" fill="#d7191c" fill-opacity="0.3" stroke="none"/><path d="M 43.00,51.05 A 22.00,22.00 0 0 1 50.02,44.62 L 43.47,40.03 A 14.00,14.00 0 0 0 39.00,44.12 Z" fill="#d7191c" fill-opacity="0.3" stroke="none"/><defs><clipPath id="precip_clip"><circle cx="32.0" cy="32.0" r="9.0"/></clipPath></defs><rect x="23.00" y="40.82" width="18.00" height="0.18" fill="#a9d6ff" clip-path="url(#precip_clip)"/><path d="M 23.00,40.82 23.56,40.67 24.12,40.54 24.69,40.45 25.25,40.42 25.81,40.45 26.38,40.54 26.94,40.67 27.50,40.82 28.06,40.97 28.62,41.10 29.19,41.19 29.75,41.22 30.31,41.19 30.88,41.10 31.44,40.97 32.00,40.82 32.56,40.67 33.12,40.54 33.69,40.45 34.25,40.42 34.81,40.45 35.38,40.54 35.94,40.67 36.50,40.82 37.06,40.97 37.62,41.10 38.19,41.19 38.75,41.22 39.31,41.19 39.88,41.10 40.44,40.97 41.00,40.82" stroke="#87abcc" stroke-width="1.8" fill="none" clip-path="url(#precip_clip)"/><path d="M 23.00,41.00 23.56,40.86 24.12,40.75 24.69,40.67 25.25,40.64 25.81,40.67 26.38,40.75 26.94,40.86 27.50,41.00 28.06,41.14 28.62,41.25 29.19,41.33 29.75,41.36 30.31,41.33 30.88,41.25 31.44,41.14 32.00,41.00 32.56,40.86 33.12,40.75 33.69,40.67 34.25,40.64 34.81,40.67 35.38,40.75 35.94,40.86 36.50,41.00 37.06,41.14 37.62,41.25 38.19,41.33 38.75,41.36 39.31,41.33 39.88,41.25 40.44,41.14 41.00,41.00" stroke="#87abcc" stroke-width="1.6" fill="none" clip-path="url(#precip_clip)"/><path d="M 23.00,41.00 23.56,40.88 24.12,40.77 24.69,40.70 25.25,40.68 25.81,40.70 26.38,40.77 26.94,40.88 27.50,41.00 28.06,41.12 28.62,41.23 29.19,41.30 29.75,41.32 30.31,41.30 30.88,41.23 31.44,41.12 32.00,41.00 32.56,40.88 33.12,40.77 33.69,40.70 34.25,40.68 34.81,40.70 35.38,40.77 35.94,40.88 36.50,41.00 37.06,41.12 37.62,41.23 38.19,41.30 38.75,41.32 39.31,41.30 39.88,41.23 40.44,41.12 41.00,41.00" stroke="#87abcc" stroke-width="1.4" fill="none" clip-path="url(#precip_clip)"/><circle cx="32.0" cy="32.0" r="9.0" fill="none" stroke="#666" stroke-width="1"/><path d="M 10.00,32.00 A 22.00,22.00 0 0 1 11.33,39.52 L 18.84,36.79 A 14.00,14.00 0 0 0 18.00,32.00 Z" fill="#2c7bb6" fill-opacity="0.95" stroke="none"/><text x="14.27" y="35.13" font-size="5" fill="#777" text-anchor="middle" dominant-baseline="central" style="pointer-events:none">-10</text><circle cx="14.27" cy="35.13" r="2.6" fill="none" stroke="#000" stroke-width="1"/><path d="M 32.0,32.0 L 50.26,19.73 A 22.00,22.00 0 0 1 44.27,13.74 Z" fill="rgba(120,120,120,0.25)" stroke="none"/><g transform="rotate(135.0,32.0,32.0)"><line x1="54.00" y1="32.00" x2="64.00" y2="32.00" stroke="#222" stroke-width="2"/><polygon points="64.00,32.00 58.00,29.00 58.00,35.00" fill="#222"/></g></svg>