<svg xmlns="http://www.w3.org/2000/svg" width="64" height="64" viewBox="0 0 64 64"><path d="M 13.98,44.62 A 22.00,22.00 0 0 1 21.00,51.05 L 25.00,44.12 A 14.00,14.00 0 0 0 20.53,40.03 Z" fill="#225996" fill-opacity="0.3" stroke="none"/><path d="M 10.33,35.82 A 22.00,22.00 0 0 1 13.98,44.62 L 20.53,40.03 A 14.00,14.00 0 0 0 18.21,34.43 Z" fill="#2970ac" fill-opacity="0.3" stroke="none"/><path d="M 10.75,26.31 A 22.00,22.00 0 0 1 10.33,35.82 L 18.21,34.43 A 14.00,14.00 0 0 0 18.48,28.38 Z" fill="#2186bb" fill-opacity="0.3" stroke="none"/><path d="M 15.15,17.86 A 22.00,22.00 0 0 1 10.75,26.31 L 18.48,28.38 A 14.00,14.00 0 0 0 21.28,23.00 Z" fill="#0b9bc5" fill-opacity="0.3" stroke="none"/><path d="M 22.70,12.06 A 22.00,22.00 0 0 1 15.15,17.86 L 21.28,23.00 A 14.00,14.00 0 0 0 26.08,19.31 Z" fill="#0da8b5" fill-opacity="0.3" stroke="none"/><path d="M 32.00,10.00 A 22.00,22.00 0 0 1 22.70,12.06 L 26.08,19.31 A 14.00,14.00 0 0 0 32.00,18.00 Z" fill="#26aa8a" fill-opacity="0.3" stroke="none"/><path d="M 41.30,12.06 A 22.00,22.00 0 0 1 32.00,10.00 L 32.00,18.00 A 14.00,14.00 0 0 0 37.92,19.31 Z" fill="#40ae5f" fill-opacity="0.3" stroke="none"/><path d="M 48.85,17.86 A 22.00,22.00 0 0 1 41.30,12.06 L 37.92,19.31 A 14.00,14.00 0 0 0 42.72,23.00 Z" fill="#a6d73e" fill-opacity="0.3" stroke="none"/><path d="M 53.25,26.31 A 22.00,22.00 0 0 1 48.85,17.86 L 42.72,23.00 A 14.00,14.00 0 0 0 45.52,28.38 Z" fill="#fed64a" fill-opacity="0.3" stroke="none"/><path d="M 53.67,35.82 A 22.00,22.00 0 0 1 53.25,26.31 L 45.52,28.38 A 14.00,14.00 0 0 0 45.79,34.43 Z" fill="#ea643e" fill-opacity="0.3" stroke="none"/><path d="M 50.02,44.62 A 22.00,22.00 0 0 1 53.67,35.82 L 45.79,34.43 A 14.00,14.00 0 0 0 43.47,40.03 Z" fill="#d7191c" fill-opacity="0.3" stroke="none"/><path d="M 43.00,51.05 A 22.00,22.00 0 0 1 50.02,44.62 L 43.47,40.03 A 14.00,14.00 0 0 0 39.00,44.12 Z" fill="#d7191c" fill-opacity="0.3" stroke="none"/><defs><clipPath id="precip_clip"><circle cx="32.0" cy="32.0" r="9.0"/></clipPath></defs><rect x="23.00" y="30.20" width="18.00" height="10.80" fill="#3e97e6" clip-path="url(#precip_clip)"/><path d="M 23.00,30.20 23.56,29.74 24.12,29.35 24.69,29.09 25.25,29.00 25.81,29.09 26.38,29.35 26.94,29.74 27.50,30.20 28.06,30.66 28.62,31.05 29.19,31.31 29.75,31.40 30.31,31.31 30.88,31.05 31.44,30.66 32.00,30.20 32.56,29.74 33.12,29.35 33.69,29.09 34.25,29.00 34.81,29.09 35.38,29.35 35.94,29.74 36.50,30.20 37.06,30.66 37.62,31.05 38.19,31.31 38.75,31.40 39.31,31.31 39.88,31.05 40.44,30.66 41.00,30.20" stroke="#3279b8" stroke-width="1.8" fill="none" clip-path="url(#precip_clip)"/><path d="M 23.00,31.70 23.56,31.29 24.12,30.94 24.69,30.70 25.25,30.62 25.81,30.70 26.38,30.94 26.94,31.29 27.50,31.70 28.06,32.11 28.62,32.46 29.19,32.70 29.75,32.78 30.31,32.70 30.88,32.46 31.44,32.11 32.00,31.70 32.56,31.29 33.12,30.94 33.69,30.70 34.25,30.62 34.81,30.70 35.38,30.94 35.94,31.29 36.50,31.70 37.06,32.11 37.62,32.46 38.19,32.70 38.75,32.78 39.31,32.70 39.88,32.46 40.44,32.11 41.00,31.70" stroke="#3279b8" stroke-width="1.6" fill="none" clip-path="url(#precip_clip)"/><path d="M 23.00,33.20 23.56,32.83 24.12,32.52 24.69,32.31 25.25,32.24 25.81,32.31 26.38,32.52 26.94,32.83 27.50,33.20 28.06,33.57 28.62,33.88 29.19,34.09 29.75,34.16 30.31,34.09 30.88,33.88 31.44,33.57 32.00,33.20 32.56,32.83 33.12,32.52 33.69,32.31 34.25,32.24 34.81,32.31 35.38,32.52 35.94,32.83 36.50,33.20 37.06,33.57 37.62,33.88 38.19,34.09 38.75,34.16 39.31,34.09 39.88,33.88 40.44,33.57 41.00,33.20" stroke="#3279b8" stroke-width="1.4" fill="none" clip-path="url(#precip_clip)"/><circle cx="32.0" cy="32.0" r="9.0" fill="none" stroke="#666" stroke-width="1"/><path d="M 53.92,30.08 A 22.00,22.00 0 0 1 51.05,21.00 L 44.12,25.00 A 14.00,14.00 0 0 0 45.95,30.78 Z" fill="#fdb65c" fill-opacity="0.95" stroke="none"/><text x="49.17" y="26.59" font-size="5" fill="#777" text-anchor="middle" dominant-baseline="central" style="pointer-events:none">24</text><path d="M 54.00,32.00 A 22.00,22.00 0 0 1 53.92,30.08 L 45.95,30.78 A 14.00,14.00 0 0 0 46.00,32.00 Z" fill="#ea643e" fill-opacity="0.95" stroke="none"/><text x="49.98" y="31.21" font-size="5" fill="#777" text-anchor="middle" dominant-baseline="central" style="pointer-events:none">28</text><circle cx="49.39" cy="27.34" r="2.6" fill="none" stroke="#000" stroke-width="1"/><path d="M 32.0,32.0 L 10.81,37.90 A 22.00,22.00 0 0 1 26.10,53.19 Z" fill="rgba(120,120,120,0.25)" stroke="none"/><g transform="rotate(315.0,32.0,32.0)"><line x1="54.00" y1="32.00" x2="64.00" y2="32.00" stroke="#222" stroke-width="2"/><polygon points="64.00,32.00 58.00,29.00 58.00,35.00" fill="#222"/></g></svg>