<svg xmlns="http://www.w3.org/2000/svg" width="64" height="64" viewBox="0 0 64 64"><path d="M 13.98,44.62 A 22.00,22.00 0 0 1 21.00,51.05 L 25.00,44.12 A 14.00,14.00 0 0 0 20.53,40.03 Z" fill="#225996" fill-opacity="0.3" stroke="none"/><path d="M 10.33,35.82 A 22.00,22.00 0 0 1 13.98,44.62 L 20.53,40.03 A 14.00,14.00 0 0 0 18.21,34.43 Z" fill="#2970ac" fill-opacity="0.3" stroke="none"/><path d="M 10.75,26.31 A 22.00,22.00 0 0 1 10.33,35.82 L 18.21,34.43 A 14.00,14.00 0 0 0 18.48,28.38 Z" fill="#2186bb" fill-opacity="0.3" stroke="none"/><path d="M 15.15,17.86 A 22.00,22.00 0 0 1 10.75,26.31 L 18.48,28.38 A 14.00,14.00 0 0 0 21.28,23.00 Z" fill="#0b9bc5" fill-opacity="0.3" stroke="none"/><path d="M 22.70,12.06 A 22.00,22.00 0 0 1 15.15,17.86 L 21.28,23.00 A 14.00,14.00 0 0 0 26.08,19.31 Z" fill="#0da8b5" fill-opacity="0.3" stroke="none"/><path d="M 32.00,10.00 A 22.00,22.00 0 0 1 22.70,12.06 L 26.08,19.31 A 14.00,14.00 0 0 0 32.00,18.00 Z" fill="#26aa8a" fill-opacity="0.3" stroke="none"/><path d="M 41.30,12.06 A 22.00,22.00 0 0 1 32.00,10.00 L 32.00,18.00 A 14.00,14.00 0 0 0 37.92,19.31 Z" fill="#40ae5f" fill-opacity="0.3" stroke="none"/><path d="M 48.85,17.86 A 22.00,22.00 0 0 1 41.30,12.06 L 37.92,19.31 A 14.00,14.00 0 0 0 42.72,23.00 Z" fill="#a6d73e" fill-opacity="0.3" stroke="none"/><path d="M 53.25,26.31 A 22.00,22.00 0 0 1 48.85,17.86 L 42.72,23.00 A 14.00,14.00 0 0 0 45.52,28.38 Z" fill="#fed64a" fill-opacity="0.3" stroke="none"/><path d="M 53.67,35.82 A 22.00,22.00 0 0 1 53.25,26.31 L 45.52,28.38 A 14.00,14.00 0 0 0 45.79,34.43 Z" fill="#ea643e" fill-opacity="0.3" stroke="none"/><path d="M 50.02,44.62 A 22.00,22.00 0 0 1 53.67,35.82 L 45.79,34.43 A 14.00,14.00 0 0 0 43.47,40.03 Z" fill="#d7191c" fill-opacity="0.3" stroke="none"/><path d="M 43.00,51.05 A 22.00,22.00 0 0 1 50.02,44.62 L 43.47,40.03 A 14.00,14.00 0 0 0 39.00,44.12 Z" fill="#d7191c" fill-opacity="0.3" stroke="none"/><defs><clipPath id="precip_clip"><circle cx="32.0" cy="32.0" r="9.0"/></clipPath></defs><rect x="23.00" y="23.00" width="18.00" height="18.00" fill="#1f6fb8" clip-path="url(#precip_clip)"/><path d="M 23.00,23.00 23.56,22.31 24.12,21.73 24.69,21.34 25.25,21.20 25.81,21.34 26.38,21.73 26.94,22.31 27.50,23.00 28.06,23.69 28.62,24.27 29.19,24.66 29.75,24.80 30.31,24.66 30.88,24.27 31.44,23.69 32.00,23.00 32.56,22.31 33.12,21.73 33.69,21.34 34.25,21.20 34.81,21.34 35.38,21.73 35.94,22.31 36.50,23.00 37.06,23.69 37.62,24.27 38.19,24.66 38.75,24.80 39.31,24.66 39.88,24.27 40.44,23.69 41.00,23.00" stroke="#195993" stroke-width="1.8" fill="none" clip-path="url(#precip_clip)"/><path d="M 23.00,24.50 23.56,23.88 24.12,23.35 24.69,23.00 25.25,22.88 25.81,23.00 26.38,23.35 26.94,23.88 27.50,24.50 28.06,25.12 28.62,25.65 29.19,26.00 29.75,26.12 30.31,26.00 30.88,25.65 31.44,25.12 32.00,24.50 32.56,23.88 33.12,23.35 33.69,23.00 34.25,22.88 34.81,23.00 35.38,23.35 35.94,23.88 36.50,24.50 37.06,25.12 37.62,25.65 38.19,26.00 38.75,26.12 39.31,26.00 39.88,25.65 40.44,25.12 41.00,24.50" stroke="#195993" stroke-width="1.6" fill="none" clip-path="url(#precip_clip)"/><path d="M 23.00,26.00 23.56,25.45 24.12,24.98 24.69,24.67 25.25,24.56 25.81,24.67 26.38,24.98 26.94,25.45 27.50,26.00 28.06,26.55 28.62,27.02 29.19,27.33 29.75,27.44 30.31,27.33 30.88,27.02 31.44,26.55 32.00,26.00 32.56,25.45 33.12,24.98 33.69,24.67 34.25,24.56 34.81,24.67 35.38,24.98 35.94,25.45 36.50,26.00 37.06,26.55 37.62,27.02 38.19,27.33 38.75,27.44 39.31,27.33 39.88,27.02 40.44,26.55 41.00,26.00" stroke="#195993" stroke-width="1.4" fill="none" clip-path="url(#precip_clip)"/><circle cx="32.0" cy="32.0" r="9.0" fill="none" stroke="#666" stroke-width="1"/><path d="M 46.14,48.85 A 22.00,22.00 0 0 1 51.94,41.30 L 44.69,37.92 A 14.00,14.00 0 0 0 41.00,42.72 Z" fill="#d7191c" fill-opacity="0.95" stroke="none"/><text x="46.28" y="42.96" font-size="5" fill="#777" text-anchor="middle" dominant-baseline="central" style="pointer-events:none">36</text><circle cx="46.74" cy="42.32" r="2.6" fill="none" stroke="#000" stroke-width="1"/><path d="M 32.0,32.0 L 27.55,53.55 A 22.00,22.00 0 0 1 52.88,38.92 Z" fill="rgba(120,120,120,0.25)" stroke="none"/><g transform="rotate(30.0,32.0,32.0)"><line x1="54.00" y1="32.00" x2="64.00" y2="32.00" stroke="#222" stroke-width="2"/><polygon points="64.00,32.00 58.00,29.00 58.00,35.00" fill="#222"/></g></svg>